# xmcd
#
# Track frame offsets: 
#        150
#        12933
#        26384
#        37004
#        47985
#        58623
#        70007
#        81200
#        91488
#        102395
#        111734
#        120951
#        133625
#        144870
#        155479
#        163276
#        172686
#        184497
#        192965
#        203732
#        214987
#        226254
#        236738
#        247724
#        257712
#        270293
#        279785
#        288636
#
# Disc length: 4004 seconds
#
# Revision: 3
# Processed by: cddbd v1.5.2PL0 Copyright (c) Steve Scherf et al.
# Submitted via: ExactAudioCopy v1.1
#
DISCID=8c0fa21c
DTITLE=Various Artist - Rhythm 'n' Bluesin By the Bayou - Livin', Lov
DTITLE=in' and Lyin'
DYEAR=2017
DGENRE=Rhythm and Blues
TTITLE0=Cookie and The Cupcakes - I Keep Crying
TTITLE1=Eddie Lang - Troubles Troubles
TTITLE2=Little Victor and His Jivin' Five - Loc-A-Li
TTITLE3=Lonesome Sundown - Give it Up
TTITLE4=Little Bob and The Lollipops - Wanna Be Your Man
TTITLE5=Little Nolton - Don't Know Why
TTITLE6=Elizabeth - Tell Me Why
TTITLE7=(unknown artist) - Love Me Chile
TTITLE8=Tabby Thomas - Roll on Ole Mule
TTITLE9=Charles Sheffield - I Would Be a Sinner
TTITLE10=King Karl - Baby, Baby, Come to Papa
TTITLE11=Cookie and The Cupcakes - Keep Livin'
TTITLE12=(unknown artist) - Won't Be Blue No More
TTITLE13=Van Preston - Mama's Little Girl
TTITLE14=Elizabeth - I Know
TTITLE15=Eddie Williams - Baby's Got Bad Feet
TTITLE16=King Charles - Won't Be Me
TTITLE17=Guitar Jr. - Love Me, Love Me Mary Ann
TTITLE18=Tal Miller - Scorched
TTITLE19=Little Ray Campbell - Uncle John Special
TTITLE20=Chuck Martin - Carry on Yvonne
TTITLE21=Guitar Jr. and Combo - Family Rules (Angel Child)
TTITLE22=Sticks Herman with Marcelle Dugas Combo - Crying, Crying
TTITLE23=James Freeman - Baby If You Want to Play
TTITLE24=King Charles and His Orchestra - But You Thrill Me
TTITLE25=Guitar Jr. - I Got it Made (When I Married Shirley Mae)
TTITLE26=Tabby Thomas - Don't Say
TTITLE27=Joe (Mr. "G") August - Boogie with Calypso
EXTD=
EXTT0=
EXTT1=
EXTT2=
EXTT3=
EXTT4=
EXTT5=
EXTT6=
EXTT7=
EXTT8=
EXTT9=
EXTT10=
EXTT11=
EXTT12=
EXTT13=
EXTT14=
EXTT15=
EXTT16=
EXTT17=
EXTT18=
EXTT19=
EXTT20=
EXTT21=
EXTT22=
EXTT23=
EXTT24=
EXTT25=
EXTT26=
EXTT27=
PLAYORDER=
